Coordinates
version=1
nRows=14
nColumns=33
inDegrees=yes

Units are S.I. units (second, meters, Newtons, ...)
Angles are in degrees.

endheader
time	ground_thorax_rot_x	ground_thorax_rot_y	ground_thorax_rot_z	ground_thorax_tx	ground_thorax_ty	ground_thorax_tz	clav_prot_r	clav_elev_r	scapula_abduction_r	scapula_elevation_r	scapula_upward_rot_r	scapula_winging_r	shoulder_elv_r	plane_of_elev_r	axial_rot_r	elbow_flexion_r	pro_sup_r	wrist_flex_r	wrist_dev_r	clav_prot_l	clav_elev_l	scapula_abduction_l	scapula_elevation_l	scapula_upward_rot_l	scapula_winging_l	shoulder_elv_l	plane_of_elev_l	axial_rot_l	elbow_flexion_l	pro_sup_l	wrist_flex_l	wrist_dev_l
      4.23000000	     38.99601543	      9.00857426	     13.82225983	   -241.94291226	    836.33226079	      6.39721917	     14.23697994	     37.20411999	     34.97632204	     45.00000000	    -45.00000000	   2073.68239528	   -465.97844076	    147.37938808	    179.99999979	    730.31420231	     65.80602970	     25.72386675	      7.80700993	     10.21167751	    -45.00000000	    -36.86441909	     45.00000000	    -45.00000000	  -2418.98920023	   1346.39803665	    137.75830806	   -179.99999979	   1447.36142658	     33.10116190	      7.02888731	    -23.77203502
      4.24000000	     38.91374290	      9.14419510	     13.91641075	   -242.01765460	    835.39396742	      6.26454021	     13.99408584	     37.06577191	     34.70115468	     45.00000000	    -45.00000000	   2073.83174042	   -465.97555914	    147.38395038	    179.99999979	    730.27563481	     65.23869066	     25.87292075	      7.77828095	     10.20606230	    -45.00000000	    -36.68437600	     45.00000000	    -45.00000000	  -2418.99261899	   1346.35765846	    137.84051252	   -179.99999979	   1447.24043171	     32.16986437	      7.66961651	    -24.14356765
      4.25000000	     38.87286703	      9.33666354	     14.15759397	   -241.89328814	    834.47717556	      6.16250252	     14.11496223	     37.10899170	     34.68516969	     45.00000000	    -45.00000000	   2073.91745222	   -466.11442238	    147.42745513	    179.99999979	    730.11306555	     64.84263306	     25.77977852	      7.92326196	     10.25887183	    -45.00000000	    -36.63639539	     45.00000000	    -45.00000000	  -2419.01700371	   1346.14735801	    137.81266996	   -179.99999979	   1447.03482414	     31.30015395	      7.70752005	    -23.88846506
      4.26000000	     38.85176870	      9.42568452	     14.26931528	   -241.61411746	    833.59008510	      6.08997432	     14.04141046	     37.04441266	     34.56224284	     45.00000000	    -45.00000000	   2074.04522237	   -466.08775587	    147.57199963	    179.99999979	    729.95881719	     64.51443843	     25.79922079	      7.94549114	     10.26820537	    -45.00000000	    -36.59196879	     45.00000000	    -45.00000000	  -2419.17288677	   1346.02227627	    137.88849935	   -179.99999979	   1446.93875549	     30.60975944	      7.95400726	    -23.96009702
      4.27000000	     38.75132264	      9.46997323	     14.35026516	   -241.22773082	    832.76038140	      6.04338381	     14.07529090	     37.07903354	     34.54611091	     45.00000000	    -45.00000000	   2074.07077967	   -466.29785012	    147.54477444	    179.99999979	    729.82726452	     64.27034659	     25.73577452	      7.99639309	     10.27907282	    -45.00000000	    -36.69456040	     45.00000000	    -45.00000000	  -2419.15022618	   1345.92042528	    137.79969777	   -179.99999979	   1446.80149349	     30.01867761	      7.97997581	    -23.85152655
      4.28000000	     38.71418333	      9.49169383	     14.51178629	   -240.78638633	    832.01080579	      6.01480226	     14.05034642	     37.05493315	     34.43802325	     45.00000000	    -45.00000000	   2074.24499369	   -466.20656463	    147.63497050	    179.99999979	    729.92175477	     64.04610572	     25.76394970	      7.97031030	     10.30705091	    -45.00000000	    -36.51218336	     45.00000000	    -45.00000000	  -2419.29820535	   1345.89875913	    137.92002990	   -179.99999979	   1446.88600694	     29.51730849	      8.02743909	    -23.88440265
      4.29000000	     38.61931169	      9.52145799	     14.60296886	   -240.33601583	    831.35356389	      5.99365742	     14.04766419	     37.04173784	     34.47069255	     45.00000000	    -45.00000000	   2074.13897494	   -466.39954763	    147.54330289	    179.99999979	    729.78445343	     63.94235854	     25.70639948	      7.97962806	     10.26609295	    -45.00000000	    -36.67492741	     45.00000000	    -45.00000000	  -2419.21298848	   1345.78325746	    137.77146439	   -179.99999979	   1446.76494090	     29.17279083	      7.98860223	    -23.81938005
      4.30000000	     38.57431518	      9.45175587	     14.67112602	   -239.91614411	    830.79886703	      5.96992587	     14.02698982	     37.10191394	     34.34109816	     45.00000000	    -45.00000000	   2074.40746440	   -466.23422824	    147.68766216	    179.99999979	    729.94851910	     63.84786818	     25.76921679	      7.94049425	     10.31228957	    -45.00000000	    -36.46007126	     45.00000000	    -45.00000000	  -2419.44520215	   1345.86753588	    137.90412929	   -179.99999979	   1446.88957055	     28.93022974	      7.92892662	    -23.84833786
      4.31000000	     38.48839402	      9.47057536	     14.77342881	   -239.55382495	    830.35233897	      5.93567794	     14.02347006	     36.97484042	     34.42961769	     45.00000000	    -45.00000000	   2074.15099861	   -466.49042404	    147.48941966	    179.99999979	    729.81965857	     63.86198022	     25.70999456	      7.93579085	     10.23279396	    -45.00000000	    -36.67877484	     45.00000000	    -45.00000000	  -2419.25832538	   1345.70692611	    137.71302987	   -179.99999979	   1446.81318934	     28.83693701	      7.82405945	    -23.79732416
      4.32000000	     38.43139157	      9.35284582	     14.78106689	   -239.26135686	    830.01331965	      5.88689300	     13.98130652	     37.22762808	     34.25385953	     45.00000000	    -45.00000000	   2074.61246728	   -466.16267867	    147.77400968	    179.99999979	    730.07534282	     63.83376581	     25.83201695	      7.90015154	     10.32232947	    -45.00000000	    -36.36700332	     45.00000000	    -45.00000000	  -2419.57892177	   1345.91851856	    137.89232840	   -179.99999979	   1446.95638282	     28.82064649	      7.72626287	    -23.83846849
      4.33000000	     38.35866238	      9.28923946	     14.84602874	   -239.03217226	    829.77210405	      5.82253385	     13.97152124	     37.09246261	     34.34070175	     45.00000000	    -45.00000000	   2074.34872255	   -466.40687615	    147.53261298	    179.99999979	    729.99713048	     63.88837618	     25.78356081	      7.89632857	     10.24591387	    -45.00000000	    -36.51019368	     45.00000000	    -45.00000000	  -2419.36595162	   1345.78035584	    137.73872675	   -179.99999979	   1446.90464179	     28.92589947	      7.62318502	    -23.80084963
      4.34000000	     38.30681262	      9.18027631	     14.74334447	   -238.85675031	    829.62320213	      5.74644019	     13.99196074	     37.04890371	     34.28944807	     45.00000000	    -45.00000000	   2074.48232120	   -466.33067857	    147.63575581	    179.99999979	    730.21473986	     63.87026901	     25.87409783	      7.88123281	     10.24439585	    -45.00000000	    -36.62782313	     45.00000000	    -45.00000000	  -2419.50305040	   1345.79721723	    137.87448353	   -179.99999979	   1447.06816258	     29.01763394	      7.50729784	    -23.84023764
      4.35000000	     38.25690444	      9.14853744	     14.87275717	   -238.70908718	    829.54807569	      5.66195949	     13.94062850	     37.08321817	     34.32707958	     45.00000000	    -45.00000000	   2074.36214011	   -466.39493127	    147.44819941	    179.99999979	    730.07124313	     63.89072160	     25.81714720	      7.89983982	     10.30161147	    -45.00000000	    -36.40937824	     45.00000000	    -45.00000000	  -2419.33266886	   1345.80001931	    137.63199357	   -179.99999979	   1446.92639893	     29.15510674	      7.42400198	    -23.77046491
      4.36000000	     38.22193829	      9.03810796	     14.77869360	   -238.56487295	    829.53060392	      5.57395500	     13.96993378	     37.07131873	     34.29320608	     45.00000000	    -45.00000000	   2074.56281386	   -466.24453590	    147.53398910	    179.99999979	    730.23044580	     63.82802346	     25.88041942	      7.90488356	     10.27357121	    -45.00000000	    -36.51961256	     45.00000000	    -45.00000000	  -2419.49326696	   1345.79516927	    137.81572837	   -179.99999979	   1447.09140178	     29.27550787	      7.35812945	    -23.81789534
